<svg width="14" height="28" viewBox="0 0 14 28" fill="none" xmlns="http://www.w3.org/2000/svg">
<path d="M11.6739 27.9999C11.3751 28.0009 11.0799 27.9349 10.81 27.8069C10.5401 27.6789 10.3022 27.4919 10.114 27.2599L0.454933 15.2611C0.160797 14.9032 0 14.4544 0 13.9912C0 13.528 0.160797 13.0791 0.454933 12.7213L10.454 0.722437C10.7934 0.314042 11.2812 0.0572171 11.81 0.0084622C12.3388 -0.0402927 12.8653 0.123016 13.2737 0.462461C13.6821 0.801906 13.9389 1.28968 13.9877 1.81849C14.0365 2.34729 13.8731 2.8738 13.5337 3.28219L4.59454 14.0012L13.2337 24.7202C13.4783 25.0137 13.6336 25.3712 13.6814 25.7502C13.7291 26.1293 13.6673 26.5141 13.5032 26.8591C13.3391 27.2041 13.0796 27.4949 12.7554 27.6971C12.4312 27.8993 12.0559 28.0043 11.6739 27.9999Z" fill="#161A1D"/>
</svg>
