<svg width="50" height="50" viewBox="0 0 50 50" fill="none" xmlns="http://www.w3.org/2000/svg">
<path d="M28.125 43.75H21.875" stroke="#196FE0" stroke-width="4" stroke-linecap="round" stroke-linejoin="round"/>
<path d="M24.0177 3.8599C20.3082 6.83141 7.90123 18.7054 18.75 37.5H31.25C41.8732 18.7187 29.6477 6.84821 25.9771 3.86622C25.7005 3.64131 25.3551 3.518 24.9985 3.51685C24.642 3.5157 24.2958 3.63678 24.0177 3.8599Z" stroke="#196FE0" stroke-width="4" stroke-linecap="round" stroke-linejoin="round"/>
<path d="M14.4271 21.75L8.30399 29.0977C8.15104 29.2813 8.04222 29.4974 7.98589 29.7296C7.92956 29.9618 7.92722 30.2038 7.97904 30.437L10.3937 41.3028C10.4512 41.5618 10.5738 41.8019 10.7498 42.0005C10.9259 42.199 11.1496 42.3494 11.3998 42.4376C11.6501 42.5258 11.9187 42.5487 12.1803 42.5044C12.4419 42.46 12.6879 42.3497 12.8951 42.184L18.75 37.5M35.4554 21.6089L41.696 29.0977C41.849 29.2813 41.9578 29.4974 42.0141 29.7296C42.0704 29.9618 42.0728 30.2038 42.021 30.437L39.6063 41.3028C39.5488 41.5618 39.4262 41.8019 39.2502 42.0005C39.0741 42.199 38.8504 42.3494 38.6002 42.4376C38.3499 42.5258 38.0813 42.5487 37.8197 42.5044C37.5581 42.46 37.3121 42.3497 37.1049 42.184L31.25 37.5" stroke="#196FE0" stroke-width="4" stroke-linecap="round" stroke-linejoin="round"/>
<path d="M25 21.0938C26.2944 21.0938 27.3438 20.0444 27.3438 18.75C27.3438 17.4556 26.2944 16.4062 25 16.4062C23.7056 16.4062 22.6562 17.4556 22.6562 18.75C22.6562 20.0444 23.7056 21.0938 25 21.0938Z" fill="#196FE0"/>
</svg>
