<svg width="22" height="18" viewBox="0 0 22 18" fill="none" xmlns="http://www.w3.org/2000/svg">
<path d="M21.1972 9.23684C21.4724 9.20531 21.7416 9.33252 21.8892 9.56394C22.0369 9.79536 22.0369 10.0899 21.8892 10.3213C21.7416 10.5527 21.4724 10.6799 21.1972 10.6484H20.1799V13.3105C20.1824 14.5534 19.6841 15.7462 18.7947 16.6259C17.9053 17.5056 16.6979 18 15.4388 18H14.6614C14.2639 18 13.9416 17.6819 13.9416 17.2895C13.9416 16.8971 14.2639 16.5789 14.6614 16.5789H15.4388C17.2524 16.5582 18.7116 15.1009 18.7115 13.3105V10.6484H16.0146V11.7095C16.0146 12.2999 15.777 12.8662 15.354 13.2837C14.9311 13.7012 14.3574 13.9358 13.7592 13.9358H8.26954C7.02393 13.9358 6.01416 12.939 6.01416 11.7095V10.6484H3.35568V13.3105C3.35568 15.1156 4.83811 16.5789 6.66678 16.5789H7.49216C7.88969 16.5789 8.21196 16.8971 8.21196 17.2895C8.21196 17.6819 7.88969 18 7.49216 18H6.71477C4.08315 18.0001 1.94239 15.9081 1.91608 13.3105V10.6484H0.802781C0.527554 10.6799 0.258427 10.5527 0.110755 10.3213C-0.0369182 10.0899 -0.0369182 9.79536 0.110755 9.56394C0.258427 9.33252 0.527554 9.20531 0.802781 9.23684H21.1972ZM13.7497 4.06421C14.3478 4.06421 14.9215 4.29877 15.3444 4.71628C15.7674 5.1338 16.005 5.70007 16.005 6.29053V7.51263C16.0078 7.58377 15.9803 7.65282 15.9293 7.70316C15.8783 7.7535 15.8084 7.78058 15.7363 7.77789H6.28289C6.21082 7.78058 6.14087 7.7535 6.08987 7.70316C6.03887 7.65282 6.01144 7.58377 6.01416 7.51263V6.29053C6.01416 5.06097 7.02393 4.06421 8.26954 4.06421H13.7497ZM15.4388 0C18.0552 0.0464966 20.1515 2.1537 20.1511 4.73684V5.75053C20.1511 6.14294 19.8288 6.46105 19.4313 6.46105C19.0338 6.46105 18.7115 6.14294 18.7115 5.75053V4.73684C18.7243 3.86836 18.3864 3.03055 17.7723 2.40843C17.1583 1.78631 16.3187 1.43103 15.4388 1.42105H14.6614C14.2639 1.42105 13.9416 1.10294 13.9416 0.710526C13.9416 0.318113 14.2639 0 14.6614 0H15.4388ZM7.44417 0C7.83955 0.00510235 8.1588 0.320246 8.16397 0.710526C8.1588 1.10081 7.83955 1.41595 7.44417 1.42105H6.66678C5.78025 1.42096 4.9307 1.77181 4.30835 2.39504C3.686 3.01827 3.34284 3.86182 3.35568 4.73684V5.75053C3.35052 6.14081 3.03126 6.45595 2.63588 6.46105H2.62628L2.52959 6.45341C2.18196 6.4026 1.91608 6.10687 1.91608 5.75053V4.73684C1.91595 2.13914 4.0353 0.025977 6.66678 0H7.44417Z" fill="#196FE0"/>
</svg>
