<?xml version="1.0" encoding="utf-8"?>
<!-- Generator: Adobe Illustrator 26.0.2, SVG Export Plug-In . SVG Version: 6.00 Build 0)  -->
<svg version="1.1" id="Layer_1" xmlns="http://www.w3.org/2000/svg" xmlns:xlink="http://www.w3.org/1999/xlink" x="0px" y="0px"
	 viewBox="0 0 33 33" style="enable-background:new 0 0 33 33;" xml:space="preserve">
<style type="text/css">
	.st0{fill:#FF060A;}
	.st1{fill:#FFFFFF;}
</style>
<g>
	<circle class="st0" cx="16.5" cy="16.5" r="16"/>
	<g id="tron">
		<path class="st1" d="M26.5,14.1c-0.9-0.9-2.2-2.1-3.2-3.1h-0.1c-0.1-0.1-0.2-0.2-0.3-0.2l0,0C20.4,10.4,8.8,8.2,8.5,8.2
			c-0.1,0-0.1,0-0.2,0.1H8.2c0,0.1,0,0.2-0.1,0.3l0,0v0.2l0,0c1.3,3.6,6.4,15.5,7.5,18.3c0.1,0.2,0.2,0.5,0.4,0.6h0.1
			c0.1,0,0.6-0.6,0.6-0.6s8.8-10.7,9.7-11.9c0.1-0.2,0.2-0.3,0.3-0.5C26.8,14.5,26.7,14.3,26.5,14.1z M18.9,15.3l3.8-3.1l2.2,2
			L18.9,15.3z M17.5,15.1L11,9.8l10.5,1.9L17.5,15.1z M18.1,16.5l6.6-1.1l-7.6,9.2L18.1,16.5z M10.1,10.3l6.8,5.8l-1,8.5L10.1,10.3z
			"/>
	</g>
</g>
</svg>
